<svg id="Capa_1" enable-background="new 0 0 504.5 504.5" height="512" viewBox="0 0 504.5 504.5" width="512" xmlns="http://www.w3.org/2000/svg"><g><path d="m244.75 285v196.592l-24.87 8.29c-3.93 1.31-6.053 5.557-4.744 9.487 1.31 3.93 5.559 6.054 9.487 4.744l29.998-10c3.062-1.021 5.128-3.887 5.128-7.115v-201.998z" fill="#999"/><path d="m319.75 285v196.592l24.87 8.29c3.93 1.31 6.053 5.557 4.744 9.487-1.31 3.93-5.559 6.054-9.487 4.744l-29.998-10c-3.063-1.021-5.128-3.887-5.128-7.115v-201.998z" fill="#808080"/><path d="m147.25 177.5c-4.136 0-7.5-3.364-7.5-7.5s3.364-7.5 7.5-7.5h15c4.143 0 7.5-3.357 7.5-7.5s-3.357-7.5-7.5-7.5h-15c-12.406 0-22.5 10.094-22.5 22.5s10.094 22.5 22.5 22.5h135v-15z" fill="#ccc"/><path d="m432.25 87.5c-4.143 0-7.5 3.357-7.5 7.5 0 45.49-37.01 82.5-82.5 82.5h-60v15h60c53.762 0 97.5-43.738 97.5-97.5 0-4.143-3.357-7.5-7.5-7.5z" fill="#b3b3b3"/><path d="m349.75 67.5c0-5.023-2.478-9.458-6.268-12.18 2.46-3.966 3.052-9.011 1.13-13.651s-5.908-7.79-10.452-8.854c.755-4.605-.629-9.493-4.18-13.044-3.552-3.552-8.439-4.936-13.044-4.18-1.065-4.543-4.214-8.53-8.854-10.452s-9.686-1.33-13.651 1.13c-2.723-3.791-7.158-6.269-12.181-6.269s-9.458 2.478-12.18 6.268c-3.966-2.46-9.011-3.052-13.651-1.13s-7.79 5.908-8.854 10.452c-4.605-.755-9.493.629-13.044 4.18-3.552 3.552-4.936 8.439-4.18 13.044-4.543 1.065-8.53 4.214-10.452 8.854s-1.33 9.686 1.13 13.651c-3.79 2.722-6.268 7.157-6.268 12.18s2.478 9.458 6.268 12.18c-2.46 3.966-3.052 9.011-1.13 13.651s5.908 7.79 10.452 8.854c-.755 4.605.629 9.493 4.18 13.044 3.693 3.693 8.833 5.058 13.596 4.094h68.268c4.762.964 9.902-.401 13.596-4.094 3.552-3.552 4.936-8.439 4.18-13.044 4.543-1.065 8.53-4.214 10.452-8.854s1.33-9.686-1.13-13.651c3.789-2.721 6.267-7.156 6.267-12.179z" fill="#85453d"/><path d="m282.25 45v90c24.853 0 45-20.147 45-45s-20.147-45-45-45z" fill="#a45e43"/><path d="m297.25 90c0-24.853-6.716-45-15-45-24.853 0-45 20.147-45 45s20.147 45 45 45c8.284 0 15-20.147 15-45z" fill="#c27749"/><path d="m252.25 255 30 75c24.853 0 45-20.147 45-45z" fill="#808080"/><path d="m237.25 285c0 24.853 20.147 45 45 45v-75z" fill="#999"/><path d="m289.75 165-17.5 45 10 45c17.929-17.974 30-51.535 30-90z" fill="#fff0d3"/><path d="m252.25 165c0 38.465 12.071 72.026 30 90v-80l-7.5-10z" fill="#fff"/><path d="m274.75 165h15v80h-15z" fill="#353535"/><path d="m312.25 165c0 25.644-12.071 48.017-30 60h-30l30 60h45v-105z" fill="#30b054"/><path d="m252.25 165-15 15v105h45v-60c-17.929-11.983-30-34.356-30-60z" fill="#80bf63"/><path d="m222.25 185v130c16.569 0 30-13.431 30-30v-120h-10c-11.046 0-20 8.954-20 20z" fill="#ccc"/><path d="m322.25 165h-10v120c0 16.569 13.431 30 30 30v-130c0-11.046-8.954-20-20-20z" fill="#b3b3b3"/><path d="m162.25 132.516c-12.406 0-22.5-10.094-22.5-22.5v-30h15v30c0 4.136 3.364 7.5 7.5 7.5s7.5-3.364 7.5-7.5v-30l15 10v20c0 12.406-10.094 22.5-22.5 22.5z" fill="#696969"/><path d="m184.75 60.015-30-7.5-30 22.5 30 22.5 30-7.5z" fill="#808080"/><path d="m64.75 30.015v90l90-22.5v-45z" fill="#999"/></g></svg>